<svg width="165" height="125" viewBox="0 0 165 125" fill="none" xmlns="http://www.w3.org/2000/svg">
<path fill-rule="evenodd" clip-rule="evenodd" d="M0.5 22.9403C0.5 10.5469 11.8412 0.5 25.8312 0.5H139.169C153.159 0.5 164.5 10.5469 164.5 22.9403V102.06C164.5 114.453 153.159 124.5 139.169 124.5H25.8312C11.8412 124.5 0.5 114.453 0.5 102.06V22.9403ZM25.8312 3.73881C13.8603 3.73881 4.15605 12.3356 4.15605 22.9403V102.06C4.15605 112.664 13.8603 121.261 25.8312 121.261H139.169C151.14 121.261 160.844 112.664 160.844 102.06V22.9403C160.844 12.3356 151.14 3.73881 139.169 3.73881H25.8312ZM23.4809 19.9328C21.6059 19.9328 20.086 21.2793 20.086 22.9403V37.5149H37.0605V22.9403C37.0605 21.2793 35.5406 19.9328 33.6656 19.9328H23.4809ZM40.7166 37.5149V22.9403C40.7166 19.4906 37.5597 16.694 33.6656 16.694H23.4809C19.5868 16.694 16.4299 19.4906 16.4299 22.9403V75.067C16.4299 78.4772 19.5174 81.2571 23.3664 81.3125L96.8631 82.3694V104.604H23.4809C21.6059 104.604 20.086 103.258 20.086 101.597V96.7388C20.086 95.0778 21.6059 93.7313 23.4809 93.7313H44.1115C45.1211 93.7313 45.9395 93.0063 45.9395 92.1119C45.9395 91.2176 45.1211 90.4925 44.1115 90.4925H23.4809C19.5868 90.4925 16.4299 93.2891 16.4299 96.7388V101.597C16.4299 105.047 19.5868 107.843 23.4809 107.843H98.7056L142.57 107.226C146.611 107.17 149.771 104.122 149.493 100.551L149.173 96.4512C148.912 93.098 145.703 90.529 141.911 90.638L122.978 90.4925C122.978 90.4925 119.428 90.4925 118.233 90.4925H100.519V82.3955H141.78C145.674 82.3955 148.831 79.599 148.831 76.1493V22.9403C148.831 19.4906 145.674 16.694 141.78 16.694H58.9968C55.1027 16.694 51.9459 19.4906 51.9459 22.9403V34.5075C51.9459 36.1684 50.4259 37.5149 48.551 37.5149H40.7166ZM54.7323 37.5149C55.2866 36.6228 55.6019 35.5977 55.6019 34.5075V22.9403C55.6019 21.2793 57.1219 19.9328 58.9968 19.9328H73.0987V35.2819C73.0987 36.1588 72.6716 36.9601 71.9781 37.5149H54.7323ZM63.8649 40.7537H20.086V59.0299C20.6771 59.9161 23.3266 60.6493 24.5743 60.6493H59.5126C61.3216 60.6493 62.8129 59.3926 62.9032 57.792L63.1752 52.9744V44.6061C63.1752 43.7008 63.3943 42.8343 63.7917 42.0502L63.8649 40.7537ZM37.9119 78.2824L53.7739 78.5105V64.1194H38.8885V75.1078C38.8885 76.2703 38.5315 77.3544 37.9119 78.2824ZM57.4299 64.1194V78.5631L98.706 79.1567H111.748V64.1194H57.4299ZM115.404 64.1194V79.1567H141.78C143.655 79.1567 145.175 77.8102 145.175 76.1493V40.9141L132.582 41.9695C130.838 42.1156 129.506 43.4123 129.506 44.9636V57.8731C129.506 61.3229 126.35 64.1194 122.455 64.1194H115.404ZM145.175 37.5149V22.9403C145.175 21.2793 143.655 19.9328 141.78 19.9328H119.844V34.5075C119.844 35.5977 119.529 36.6228 118.974 37.5149H145.175ZM112.532 40.7537C110.657 40.7537 109.137 42.1002 109.137 43.7612V60.8806H122.455C124.33 60.8806 125.85 59.5341 125.85 57.8731V44.9636C125.85 43.3497 126.544 41.8684 127.692 40.7537H112.532ZM105.481 60.8806V43.7612C105.481 42.6709 105.796 41.6459 106.35 40.7537H91.6401C89.7652 40.7537 88.2452 42.1002 88.2452 43.7612V60.8806H105.481ZM84.5892 60.8806V43.7612C84.5892 42.6709 84.9045 41.6459 85.4588 40.7537H73.1063C72.4574 41.0705 71.7431 41.3005 70.9812 41.4248L69.6111 41.6484C68.6809 41.8002 67.8979 42.2793 67.4023 42.9365L66.8312 53.0554V60.8806H84.5892ZM76.2897 37.5149C76.5909 36.8184 76.7548 36.0646 76.7548 35.2819V19.9328H95.2962V34.5075C95.2962 36.1684 93.7762 37.5149 91.9013 37.5149H76.2897ZM98.0826 37.5149H112.793C114.668 37.5149 116.188 36.1684 116.188 34.5075V19.9328H98.9522V34.5075C98.9522 35.5977 98.6369 36.6228 98.0826 37.5149ZM21.4536 64.1194L21.0437 74.5279C20.9801 76.144 22.3705 77.5154 24.1912 77.6323L31.5922 78.1074C33.5587 78.2336 35.2325 76.8544 35.2325 75.1078V64.1194H21.4536ZM100.519 95.0677V104.579L121.556 104.283L121.628 96.7641C121.636 95.8635 121.198 95.0518 120.492 94.4939L100.519 95.0677ZM126.373 94.4939C125.113 95.1903 125.292 95.9343 125.284 96.7913L125.213 104.231L142.512 103.988C144.458 103.961 145.979 102.494 145.845 100.774L145.526 96.6741C145.4 95.0596 143.855 93.8227 142.029 93.8751L126.373 94.4939ZM86.156 23.403C87.1656 23.403 87.9841 24.128 87.9841 25.0224V31.5C87.9841 32.3944 87.1656 33.1194 86.156 33.1194C85.1465 33.1194 84.328 32.3944 84.328 31.5V25.0224C84.328 24.128 85.1465 23.403 86.156 23.403ZM105.742 23.403C106.752 23.403 107.57 24.128 107.57 25.0224V31.5C107.57 32.3944 106.752 33.1194 105.742 33.1194C104.732 33.1194 103.914 32.3944 103.914 31.5V25.0224C103.914 24.128 104.732 23.403 105.742 23.403ZM136.035 23.403C137.045 23.403 137.863 24.128 137.863 25.0224V31.5C137.863 32.3944 137.045 33.1194 136.035 33.1194C135.025 33.1194 134.207 32.3944 134.207 31.5V25.0224C134.207 24.128 135.025 23.403 136.035 23.403ZM74.4045 43.9925C75.414 43.9925 76.2325 44.7176 76.2325 45.6119V53.4776C76.2325 54.372 75.414 55.097 74.4045 55.097C73.3949 55.097 72.5764 54.372 72.5764 53.4776V45.6119C72.5764 44.7176 73.3949 43.9925 74.4045 43.9925ZM96.6019 43.9925C97.6115 43.9925 98.4299 44.7176 98.4299 45.6119V53.4776C98.4299 54.372 97.6115 55.097 96.6019 55.097C95.5923 55.097 94.7739 54.372 94.7739 53.4776V45.6119C94.7739 44.7176 95.5923 43.9925 96.6019 43.9925ZM115.666 45.8433C116.675 45.8433 117.494 46.5683 117.494 47.4627V56.0224C117.494 56.9168 116.675 57.6418 115.666 57.6418C114.656 57.6418 113.838 56.9168 113.838 56.0224V47.4627C113.838 46.5683 114.656 45.8433 115.666 45.8433ZM138.385 54.403C139.395 54.403 140.213 55.128 140.213 56.0224V67.1269C140.213 70.5766 137.057 73.3731 133.162 73.3731H125.328C124.318 73.3731 123.5 72.6481 123.5 71.7537C123.5 70.8594 124.318 70.1343 125.328 70.1343H133.162C135.037 70.1343 136.557 68.7878 136.557 67.1269V56.0224C136.557 55.128 137.376 54.403 138.385 54.403ZM45.9395 66.8955C46.9491 66.8955 47.7675 67.6206 47.7675 68.5149V73.6045C47.7675 74.4989 46.9491 75.2239 45.9395 75.2239C44.9299 75.2239 44.1115 74.4989 44.1115 73.6045V68.5149C44.1115 67.6206 44.9299 66.8955 45.9395 66.8955ZM63.9586 71.7537C63.9586 70.8594 64.777 70.1343 65.7866 70.1343H101.303C102.312 70.1343 103.131 70.8594 103.131 71.7537C103.131 72.6481 102.312 73.3731 101.303 73.3731H65.7866C64.777 73.3731 63.9586 72.6481 63.9586 71.7537ZM57.4299 91.6493C57.4299 90.7549 58.2484 90.0299 59.258 90.0299H86.156C87.1656 90.0299 87.9841 90.7549 87.9841 91.6493C87.9841 92.5436 87.1656 93.2687 86.156 93.2687H59.258C58.2484 93.2687 57.4299 92.5436 57.4299 91.6493ZM107.309 99.7463C107.309 98.8519 108.127 98.1269 109.137 98.1269H113.838C114.847 98.1269 115.666 98.8519 115.666 99.7463C115.666 100.641 114.847 101.366 113.838 101.366H109.137C108.127 101.366 107.309 100.641 107.309 99.7463ZM128.201 99.7463C128.201 98.8519 129.019 98.1269 130.029 98.1269H139.691C140.701 98.1269 141.519 98.8519 141.519 99.7463C141.519 100.641 140.701 101.366 139.691 101.366H130.029C129.019 101.366 128.201 100.641 128.201 99.7463Z" stroke="white" stroke-linecap="round"/>
</svg>
